<svg width="1400" height="788" viewBox="0 0 1400 788" fill="none" xmlns="http://www.w3.org/2000/svg" role="img" aria-labelledby="title desc">
  <title id="title">H-1B, L-1 ve O-1 çalışma vizeleri</title>
  <desc id="desc">ABD çalışma vizeleri için laptop, pasaport, iş çantası ve H-1B L-1 O-1 kartlarını gösteren modern editoryal illüstrasyon.</desc>
  <defs>
    <linearGradient id="bg" x1="0" y1="0" x2="1400" y2="788" gradientUnits="userSpaceOnUse">
      <stop stop-color="#EAF2FF"/>
      <stop offset="0.55" stop-color="#F7FBFD"/>
      <stop offset="1" stop-color="#F3E8FF"/>
    </linearGradient>
    <linearGradient id="visa" x1="416" y1="180" x2="1007" y2="613" gradientUnits="userSpaceOnUse">
      <stop stop-color="#0756B0"/>
      <stop offset="1" stop-color="#1B1A6B"/>
    </linearGradient>
    <filter id="shadow" x="124" y="83" width="1153" height="626" filterUnits="userSpaceOnUse" color-interpolation-filters="sRGB">
      <feDropShadow dx="0" dy="24" stdDeviation="28" flood-color="#0F172A" flood-opacity="0.2"/>
    </filter>
  </defs>
  <rect width="1400" height="788" fill="url(#bg)"/>
  <circle cx="1190" cy="624" r="238" fill="#0756B0" opacity="0.1"/>
  <circle cx="184" cy="158" r="214" fill="#7C3AED" opacity="0.09"/>
  <g filter="url(#shadow)">
    <rect x="184" y="126" width="1032" height="500" rx="44" fill="white"/>
  </g>
  <rect x="266" y="238" width="494" height="290" rx="24" fill="#E2E8F0"/>
  <rect x="302" y="274" width="422" height="214" rx="16" fill="#0F172A"/>
  <rect x="330" y="308" width="190" height="20" rx="10" fill="#60A5FA"/>
  <rect x="330" y="358" width="330" height="16" rx="8" fill="#94A3B8" opacity="0.65"/>
  <rect x="330" y="398" width="275" height="16" rx="8" fill="#94A3B8" opacity="0.65"/>
  <rect x="330" y="438" width="228" height="16" rx="8" fill="#94A3B8" opacity="0.65"/>
  <path d="M232 558H794L746 611H280L232 558Z" fill="#CBD5E1"/>
  <rect x="815" y="176" width="310" height="420" rx="34" fill="url(#visa)"/>
  <rect x="858" y="224" width="94" height="126" rx="18" fill="#DBEAFE" opacity="0.95"/>
  <circle cx="905" cy="276" r="28" fill="#0756B0" opacity="0.23"/>
  <path d="M870 334C879 310 932 310 940 334" stroke="#0756B0" stroke-width="11" stroke-linecap="round"/>
  <rect x="982" y="232" width="98" height="18" rx="9" fill="#BFDBFE"/>
  <rect x="982" y="280" width="74" height="18" rx="9" fill="#BFDBFE" opacity="0.78"/>
  <rect x="858" y="391" width="222" height="18" rx="9" fill="#BFDBFE" opacity="0.78"/>
  <rect x="858" y="439" width="176" height="18" rx="9" fill="#BFDBFE" opacity="0.78"/>
  <text x="860" y="535" fill="#EFF6FF" font-family="Arial, Helvetica, sans-serif" font-size="44" font-weight="800">WORK VISA</text>
  <g transform="translate(602 164)">
    <rect x="0" y="0" width="138" height="86" rx="18" fill="#EFF6FF" stroke="#93C5FD" stroke-width="5"/>
    <text x="25" y="56" fill="#0756B0" font-family="Arial, Helvetica, sans-serif" font-size="32" font-weight="900">H-1B</text>
  </g>
  <g transform="translate(626 534)">
    <rect x="0" y="0" width="128" height="82" rx="18" fill="#F5F3FF" stroke="#C4B5FD" stroke-width="5"/>
    <text x="31" y="54" fill="#6D28D9" font-family="Arial, Helvetica, sans-serif" font-size="32" font-weight="900">L-1</text>
  </g>
  <g transform="translate(1080 348)">
    <rect x="0" y="0" width="128" height="82" rx="18" fill="#ECFEFF" stroke="#67E8F9" stroke-width="5"/>
    <text x="29" y="54" fill="#0E7490" font-family="Arial, Helvetica, sans-serif" font-size="32" font-weight="900">O-1</text>
  </g>
  <path d="M222 162C352 201 433 177 557 130" stroke="#0756B0" stroke-width="10" stroke-linecap="round" opacity="0.14"/>
  <text x="264" y="104" fill="#1B1A6B" font-family="Arial, Helvetica, sans-serif" font-size="44" font-weight="800">ABD Çalışma Vizeleri</text>
</svg>
